<?xml version="1.0" encoding="iso-8859-1"?>
<!-- Uploaded to: SVG Repo, www.svgrepo.com, Generator: SVG Repo Mixer Tools -->
<svg version="1.1" id="Layer_1" xmlns="http://www.w3.org/2000/svg" xmlns:xlink="http://www.w3.org/1999/xlink" 
	 viewBox="0 0 512 512" xml:space="preserve">
<g>
	<polygon style="fill:#50412E;" points="220.288,41.509 175.235,38.573 172.299,83.627 178.182,84.01 166.224,252.123 200,254.526 
		211.974,86.211 217.352,86.563 	"/>
	<polygon style="fill:#50412E;" points="144.828,251.113 125.629,105.34 130.662,104.704 124.991,59.912 80.199,65.583 
		85.871,110.374 92.035,109.593 111.256,255.535 	"/>
	<polygon style="fill:#50412E;" points="89.703,260.157 57.948,143.726 62.85,142.307 50.286,98.941 6.92,111.505 19.484,154.871 
		25.42,153.151 57.033,269.065 	"/>
	<polygon style="fill:#50412E;" points="287.662,130.322 287.662,130.322 278.495,93.59 254.609,122.964 254.609,122.964 
		226.755,248.086 259.807,255.445 	"/>
</g>
<path style="fill:#EA348B;" d="M403.346,299.473c-1.041-16.586-8.442-31.741-20.841-42.676l-33.862-29.864
	c-25.675-22.642-64.981-20.175-87.621,5.497c-1.36,1.543-2.511,2.851-3.488,3.963H95.524C42.851,236.393,0,279.244,0,331.916v45.987
	c0,52.671,42.851,95.524,95.524,95.524h113.711c52.672,0,95.524-42.852,95.524-95.524c0-4.495,1.836-8.624,5.172-11.627
	c3.449-3.107,7.928-4.549,12.619-4.056c42.254,4.439,60.781-12.505,65.453-17.801C398.937,332.02,404.387,316.058,403.346,299.473z"
	/>
<polygon points="488.057,403.89 479.628,412.318 387.192,321.165 363.416,345.276 455.683,436.263 447.423,444.524 471.366,468.468 
	512,427.834 "/>
<path style="fill:#B02768;" d="M403.346,299.473c-1.041-16.586-8.442-31.741-20.841-42.676l-33.862-29.864
	c-25.675-22.642-64.981-20.175-87.621,5.497c-1.36,1.543-2.511,2.851-3.488,3.963h-3.569v225.88
	c30.187-16.07,50.793-47.853,50.793-84.369c0-4.495,1.836-8.624,5.172-11.627c3.449-3.107,7.928-4.549,12.619-4.056
	c42.254,4.439,60.781-12.505,65.453-17.801C398.937,332.02,404.387,316.058,403.346,299.473z"/>
<g>
	
		<rect x="93.746" y="307.558" transform="matrix(-0.7071 0.7071 -0.7071 -0.7071 430.4986 480.6945)" style="fill:#F285B9;" width="43.897" height="43.897"/>
	
		<rect x="155.827" y="307.557" transform="matrix(-0.7071 0.7071 -0.7071 -0.7071 536.4769 436.7957)" style="fill:#F285B9;" width="43.897" height="43.897"/>
	
		<rect x="93.746" y="369.639" transform="matrix(-0.7071 0.7071 -0.7071 -0.7071 474.3974 586.6727)" style="fill:#F285B9;" width="43.897" height="43.897"/>
	
		<rect x="155.827" y="369.638" transform="matrix(-0.7071 0.7071 -0.7071 -0.7071 580.3757 542.774)" style="fill:#F285B9;" width="43.897" height="43.897"/>
</g>
</svg>