<?xml version="1.0" encoding="iso-8859-1"?>
<!-- Uploaded to: SVG Repo, www.svgrepo.com, Generator: SVG Repo Mixer Tools -->
<svg version="1.1" id="Layer_1" xmlns="http://www.w3.org/2000/svg" xmlns:xlink="http://www.w3.org/1999/xlink" 
	 viewBox="0 0 511.999 511.999" xml:space="preserve">
<path style="fill:#4DA081;" d="M485.038,120.492c-7.883-2.99-15.279-7.642-21.627-13.99c-24.002-24.002-24.002-62.917,0-86.921
	c0.11-0.11,0.225-0.211,0.336-0.319l-5.401-5.4L340.707,131.5l66.661,66.661L485.038,120.492z"/>
<rect x="11.929" y="267.684" transform="matrix(-0.7071 0.7071 -0.7071 -0.7071 605.0729 379.0096)" style="fill:#7DF5A5;" width="424.224" height="94.272"/>
<g>
	<circle style="fill:#FF5050;" cx="278.895" cy="155.66" r="25.411"/>
	<circle style="fill:#FF5050;" cx="215.053" cy="219.503" r="25.411"/>
	<circle style="fill:#FF5050;" cx="151.224" cy="283.331" r="25.411"/>
	<circle style="fill:#FF5050;" cx="87.382" cy="347.173" r="25.411"/>
</g>
<path d="M498.592,117.583c-0.987-4.599-4.24-8.385-8.637-10.053c-6.319-2.397-11.952-6.042-16.742-10.832
	c-8.991-8.989-13.943-20.942-13.943-33.657c0-12.664,4.912-24.573,13.835-33.55c0.118-0.11,0.234-0.222,0.349-0.334
	c2.641-2.591,4.136-6.132,4.152-9.831c0.017-3.7-1.445-7.252-4.062-9.868l-5.401-5.4c-5.414-5.412-14.191-5.411-19.606,0.001
	L330.9,121.697l-16.715,16.715c-1.884-3.849-4.406-7.403-7.525-10.524c-7.418-7.418-17.281-11.504-27.772-11.504
	c-5.677,0-11.166,1.206-16.189,3.481l-4.138-4.138l10.683-10.683c5.414-5.414,5.414-14.192,0-19.607
	c-5.414-5.412-14.192-5.412-19.607,0L17.159,317.921c-5.414,5.414-5.414,14.192,0,19.607c2.708,2.706,6.255,4.061,9.803,4.061
	s7.097-1.354,9.803-4.061l10.683-10.683l4.151,4.151c-6.517,14.461-3.851,32.085,8.012,43.948c3.16,3.158,6.731,5.655,10.538,7.51
	l-39.218,39.217c-5.414,5.414-5.414,14.192,0,19.607l66.661,66.661c2.599,2.599,6.126,4.061,9.803,4.061s7.204-1.461,9.803-4.061
	l299.975-299.975c0.003-0.001,0.004-0.004,0.007-0.007l77.661-77.661C498.166,126.97,499.579,122.184,498.592,117.583z
	 M287.058,147.495c2.181,2.181,3.381,5.081,3.381,8.166s-1.201,5.982-3.381,8.164l0,0c-2.181,2.181-5.081,3.381-8.166,3.381
	c-3.085,0-5.984-1.201-8.166-3.381c-2.181-2.181-3.381-5.08-3.381-8.164s1.201-5.984,3.381-8.166
	c2.181-2.182,5.081-3.383,8.164-3.383C281.977,144.111,284.876,145.313,287.058,147.495z M243.097,139.472
	c-2.274,5.021-3.48,10.511-3.48,16.189c0,10.491,4.086,20.353,11.503,27.77c3.16,3.158,6.731,5.656,10.539,7.511l-11.322,11.322
	c-1.855-3.808-4.352-7.38-7.51-10.539c-7.418-7.418-17.281-11.504-27.772-11.504c-5.677,0-11.167,1.206-16.189,3.48l-4.138-4.138
	l44.231-44.231L243.097,139.472z M143.049,275.172c0.001-0.001,0.003-0.001,0.004-0.003c0.001-0.001,0.001-0.001,0.003-0.003
	c2.251-2.249,5.206-3.373,8.162-3.373c2.957,0,5.914,1.126,8.164,3.377c2.182,2.181,3.383,5.081,3.383,8.166
	c0,3.085-1.201,5.984-3.383,8.166c-2.181,2.181-5.081,3.381-8.164,3.381c-3.085,0-5.984-1.201-8.166-3.381
	C138.552,286.999,138.55,279.674,143.049,275.172z M135.041,247.551l-4.149-4.149l44.231-44.231l4.151,4.151
	c-6.517,14.46-3.853,32.083,8.01,43.946c3.119,3.119,6.675,5.641,10.524,7.525L186.5,266.101c-1.856-3.808-4.352-7.38-7.511-10.539
	C167.126,243.699,149.502,241.033,135.041,247.551z M206.89,211.333c2.181-2.181,5.081-3.383,8.164-3.383
	c3.085,0,5.984,1.202,8.166,3.383c4.503,4.502,4.503,11.827,0,16.329c-2.181,2.181-5.081,3.381-8.166,3.381
	s-5.984-1.201-8.164-3.381c-2.182-2.181-3.383-5.081-3.383-8.164C203.508,216.414,204.709,213.513,206.89,211.333z M67.054,307.239
	l44.231-44.231l4.151,4.149c-6.517,14.461-3.851,32.085,8.01,43.948c3.119,3.119,6.675,5.641,10.524,7.525l-11.307,11.307
	c-1.855-3.808-4.352-7.38-7.511-10.539c-7.418-7.418-17.281-11.503-27.772-11.503c-5.677,0-11.166,1.206-16.187,3.48L67.054,307.239
	z M95.547,355.337c-4.503,4.503-11.83,4.503-16.33,0c-2.182-2.181-3.383-5.081-3.383-8.166c0-3.085,1.201-5.984,3.383-8.166
	c2.181-2.181,5.081-3.381,8.164-3.381c3.085,0,5.984,1.201,8.166,3.381C100.048,343.507,100.048,350.834,95.547,355.337z
	 M107.394,478.528L60.34,431.475l280.367-280.367l13.724,13.724l-206.79,206.79c-5.414,5.414-5.414,14.192,0,19.607
	c2.708,2.706,6.255,4.061,9.803,4.061c3.548,0,7.097-1.354,9.803-4.061l206.79-206.79l13.724,13.722L107.394,478.528z
	 M407.369,178.553l-47.055-47.055l71.281-71.281c-0.035,0.939-0.053,1.879-0.053,2.823c0,20.12,7.836,39.036,22.063,53.264
	c2.702,2.701,5.575,5.173,8.605,7.407L407.369,178.553z"/>
<path d="M128.037,424.692c-0.901,0-1.816-0.083-2.717-0.262c-0.873-0.182-1.747-0.444-2.593-0.79
	c-0.832-0.347-1.636-0.778-2.385-1.275c-0.763-0.513-1.47-1.095-2.107-1.733s-1.22-1.346-1.733-2.109
	c-0.499-0.749-0.929-1.553-1.275-2.385c-0.347-0.846-0.61-1.719-0.79-2.592c-0.18-0.9-0.263-1.802-0.263-2.703
	c0-0.915,0.083-1.816,0.263-2.717c0.18-0.887,0.444-1.761,0.79-2.592c0.347-0.832,0.776-1.648,1.275-2.397
	c0.513-0.762,1.095-1.471,1.733-2.109s1.345-1.22,2.107-1.718c0.749-0.499,1.553-0.929,2.385-1.275
	c0.846-0.347,1.719-0.61,2.593-0.79c1.788-0.36,3.632-0.36,5.421,0c0.887,0.18,1.761,0.444,2.593,0.79
	c0.846,0.347,1.65,0.776,2.398,1.275c0.762,0.498,1.47,1.08,2.107,1.718s1.22,1.346,1.719,2.109
	c0.499,0.749,0.929,1.567,1.275,2.397c0.347,0.833,0.61,1.705,0.79,2.592c0.18,0.901,0.277,1.802,0.277,2.717
	c0,0.901-0.097,1.804-0.277,2.703c-0.18,0.873-0.444,1.747-0.79,2.592c-0.347,0.832-0.776,1.636-1.275,2.385
	c-0.499,0.763-1.081,1.471-1.719,2.109s-1.345,1.22-2.107,1.733c-0.749,0.498-1.553,0.929-2.398,1.275
	c-0.832,0.347-1.705,0.609-2.593,0.79C129.854,424.608,128.939,424.692,128.037,424.692z"/>
</svg>