<?xml version="1.0" encoding="iso-8859-1"?>
<!-- Uploaded to: SVG Repo, www.svgrepo.com, Generator: SVG Repo Mixer Tools -->
<svg version="1.1" id="Layer_1" xmlns="http://www.w3.org/2000/svg" xmlns:xlink="http://www.w3.org/1999/xlink" 
	 viewBox="0 0 512 512" xml:space="preserve">
<path style="fill:#F96232;" d="M362.234,468.872l-50.336-139.883l20.364-70.437c3.671-12.7-7.373-24.794-20.353-22.288l-50.67,9.783
	v92.291H219.06V235.13l-62.776-37.026c-16.718-9.86-36.588,6.649-29.958,24.891l38.954,107.163L85.009,467.229
	c-9.399,16.051,5.504,35.387,23.419,30.385l134.979-37.686l91.95,35.267C351.888,501.537,368.23,485.532,362.234,468.872z"/>
<path d="M277.546,424.306c-0.883,0-1.782-0.082-2.653-0.259c-0.871-0.177-1.728-0.435-2.558-0.776
	c-0.816-0.34-1.605-0.762-2.34-1.252c-0.748-0.49-1.442-1.061-2.068-1.687c-0.627-0.626-1.199-1.333-1.701-2.068
	c-0.478-0.748-0.898-1.537-1.238-2.354s-0.612-1.674-0.776-2.544c-0.177-0.884-0.272-1.769-0.272-2.667
	c0-0.884,0.095-1.769,0.272-2.653c0.163-0.871,0.435-1.728,0.776-2.544s0.762-1.605,1.238-2.354
	c0.502-0.735,1.074-1.429,1.701-2.055c0.626-0.639,1.32-1.197,2.068-1.701c0.735-0.49,1.524-0.912,2.34-1.252
	c0.83-0.34,1.687-0.599,2.558-0.776c4.408-0.884,9.116,0.558,12.274,3.728c0.626,0.626,1.197,1.32,1.687,2.055
	c0.488,0.748,0.912,1.538,1.252,2.354c0.34,0.816,0.612,1.674,0.774,2.544c0.178,0.884,0.272,1.769,0.272,2.653
	c0,3.592-1.454,7.089-3.987,9.633C284.634,422.864,281.124,424.306,277.546,424.306z"/>
<path style="fill:#7DF5A5;" d="M261.24,121.321h-42.179l-15.67-88.614c-1.763-9.964,5.901-19.102,16.018-19.102h41.481
	c10.117,0,17.782,9.138,16.02,19.102L261.24,121.321z"/>
<rect x="219.057" y="121.325" style="fill:#FFDC64;" width="42.179" height="217.017"/>
<path d="M396.727,262.864c-25.77,0-46.737,20.966-46.737,46.737v85.061l-23.796-66.129l19.138-66.2
	c3.05-10.55,0.452-21.689-6.954-29.8c-7.404-8.109-18.265-11.707-29.048-9.628l-34.486,6.659V122.518l15.463-87.441
	c1.542-8.72-0.838-17.613-6.53-24.4C278.087,3.891,269.745,0,260.891,0h-41.479c-8.856,0-17.199,3.891-22.889,10.678
	c-5.69,6.787-8.071,15.678-6.53,24.4l15.463,87.441v88.79l-42.258-24.924c-12.624-7.447-28.067-6.206-39.342,3.161
	c-11.274,9.368-15.323,24.321-10.316,38.097l36.77,101.154L73.268,460.353c-7.1,12.122-6.146,27.143,2.429,38.27
	C82.316,507.211,92.336,512,102.787,512c3.087,0,6.211-0.418,9.298-1.279l130.647-36.476l87.751,33.656
	c12.681,4.863,26.581,1.98,36.282-7.521c6.957-6.814,10.534-15.862,10.315-25.147c0.072-0.567,0.122-1.143,0.122-1.729V309.599
	c0-10.766,8.76-19.525,19.525-19.525s19.525,8.758,19.525,19.525v64.615c0,7.515,6.093,13.606,13.606,13.606
	c7.513,0,13.606-6.091,13.606-13.606v-64.615C443.462,283.829,422.496,262.864,396.727,262.864z M217.37,28.165
	c0.365-0.434,1.012-0.952,2.04-0.952h41.479c1.027,0,1.675,0.517,2.04,0.952c0.366,0.434,0.762,1.163,0.582,2.174l-13.684,77.376
	H230.47l-13.684-77.376C216.61,29.328,217.006,28.599,217.37,28.165z M232.666,324.732V235.13V134.927h14.967v111.118v78.687
	H232.666L232.666,324.732z M347.723,480.939c-0.976,0.957-3.661,3.027-7.496,1.554l-91.95-35.267
	c-2.728-1.045-5.719-1.185-8.532-0.401L104.766,484.51c-4.163,1.158-6.64-1.362-7.515-2.499c-0.878-1.137-2.682-4.185-0.502-7.906
	l29.159-49.793h110.819c7.513,0,13.606-6.091,13.606-13.606c0-7.515-6.093-13.606-13.606-13.606h-94.883l35.177-60.068
	c2.046-3.494,2.43-7.717,1.048-11.524l-38.955-107.161c-1.537-4.229,0.978-6.913,2.131-7.871c0.762-0.633,2.373-1.713,4.498-1.713
	c1.091,0,2.316,0.284,3.63,1.06l56.081,33.078v83.476h-1.361c-7.513,0-13.606,6.091-13.606,13.606s6.093,13.606,13.606,13.606
	h72.112c7.513,0,13.606-6.091,13.606-13.606s-6.093-13.606-13.606-13.606h-1.361v-69.101l39.644-7.653
	c1.961-0.376,3.218,0.625,3.795,1.257s1.461,1.978,0.908,3.893l-20.364,70.439c-0.796,2.754-0.703,5.689,0.268,8.385l50.336,139.883
	l0,0C350.821,477.34,348.7,479.982,347.723,480.939z"/>
</svg>