<?xml version="1.0" encoding="iso-8859-1"?>
<!-- Uploaded to: SVG Repo, www.svgrepo.com, Generator: SVG Repo Mixer Tools -->
<svg height="800px" width="800px" version="1.1" id="Layer_1" xmlns="http://www.w3.org/2000/svg" xmlns:xlink="http://www.w3.org/1999/xlink" 
	 viewBox="0 0 511.989 511.989" xml:space="preserve">
<path style="fill:#FFD2A6;" d="M373.335,256.964h-42.67c-5.891,0-10.672-4.773-10.672-10.672V32
	c0-17.647,14.359-31.999,31.999-31.999c17.655,0,31.999,14.352,31.999,31.999v214.292
	C383.991,252.19,379.225,256.964,373.335,256.964z"/>
<path style="fill:#A0D468;" d="M428.396,466.755c-20.124,29.172-47.249,45.234-76.404,45.234c-29.14,0-56.28-16.062-76.373-45.234
	c-19.281-27.951-29.905-64.92-29.905-104.106c0-39.171,10.624-76.154,29.905-104.099c20.093-29.164,47.233-45.226,76.373-45.226
	c29.155,0,56.28,16.062,76.404,45.226c19.265,27.944,29.874,64.928,29.874,104.099C458.27,401.835,447.661,438.804,428.396,466.755z
	"/>
<path style="fill:#ED5564;" d="M245.714,362.648c0-18.499,2.374-36.53,6.905-53.327H451.38c4.531,16.797,6.891,34.828,6.891,53.327
	c0,18.516-2.359,36.53-6.891,53.343H252.619C248.088,399.179,245.714,381.164,245.714,362.648z"/>
<g>
	<path style="fill:#DA4453;" d="M299.056,362.648c0-5.874-4.781-10.655-10.672-10.655c-5.89,0-10.671,4.781-10.671,10.655
		c0,5.906,4.781,10.672,10.671,10.672S299.056,368.555,299.056,362.648z"/>
	<path style="fill:#DA4453;" d="M341.712,362.648c0-5.874-4.766-10.655-10.656-10.655s-10.672,4.781-10.672,10.655
		c0,5.906,4.781,10.672,10.672,10.672S341.712,368.555,341.712,362.648z"/>
	<path style="fill:#DA4453;" d="M384.382,362.648c0-5.874-4.766-10.655-10.672-10.655c-5.875,0-10.655,4.781-10.655,10.655
		c0,5.906,4.78,10.672,10.655,10.672C379.616,373.32,384.382,368.555,384.382,362.648z"/>
	<path style="fill:#DA4453;" d="M427.053,362.648c0-5.874-4.78-10.655-10.671-10.655s-10.672,4.781-10.672,10.655
		c0,5.906,4.781,10.672,10.672,10.672S427.053,368.555,427.053,362.648z"/>
</g>
<path style="fill:#A0D468;" d="M319.993,75.632V32c0-17.647,14.359-31.999,31.999-31.999c17.655,0,31.999,14.352,31.999,31.999
	v43.632H319.993z"/>
<path style="opacity:0.1;fill:#FFFFFF;enable-background:new    ;" d="M428.396,466.755c-20.124,29.172-47.249,45.234-76.404,45.234
	c-1.781,0-3.562-0.062-5.328-0.188c27.124-1.844,52.187-17.656,71.062-45.047c19.265-27.951,29.889-64.92,29.889-104.106
	c0-39.171-10.624-76.154-29.889-104.099c-18.875-27.375-43.938-43.202-71.062-45.046c1.766-0.117,3.547-0.18,5.328-0.18
	c29.155,0,56.28,16.062,76.404,45.226c19.265,27.944,29.874,64.928,29.874,104.099C458.27,401.835,447.661,438.804,428.396,466.755z
	"/>
<path style="fill:#FFD2A6;" d="M181.34,255.018h-42.671c-5.891,0-10.671,4.781-10.671,10.672v214.299c0,17.641,14.358,32,31.999,32
	c17.655,0,31.999-14.359,31.999-32V265.69C191.996,259.8,187.23,255.018,181.34,255.018z"/>
<path style="fill:#A0D468;" d="M236.401,45.226C216.276,16.055,189.152,0,159.997,0c-29.141,0-56.28,16.055-76.373,45.226
	c-19.281,27.952-29.906,64.921-29.906,104.1s10.625,76.154,29.906,104.106c20.093,29.155,47.232,45.218,76.373,45.218
	c29.155,0,56.279-16.062,76.404-45.218c19.265-27.952,29.874-64.928,29.874-104.106S255.666,73.179,236.401,45.226z"/>
<path style="fill:#ED5564;" d="M53.718,149.326c0,18.515,2.375,36.53,6.906,53.334h198.762c4.531-16.804,6.89-34.819,6.89-53.334
	c0-18.508-2.358-36.523-6.89-53.327H60.624C56.093,112.803,53.718,130.818,53.718,149.326z"/>
<g>
	<path style="fill:#DA4453;" d="M107.06,149.326c0,5.89-4.781,10.671-10.672,10.671s-10.671-4.781-10.671-10.671
		c0-5.891,4.78-10.664,10.671-10.664S107.06,143.435,107.06,149.326z"/>
	<path style="fill:#DA4453;" d="M149.716,149.326c0,5.89-4.766,10.671-10.656,10.671c-5.89,0-10.672-4.781-10.672-10.671
		c0-5.891,4.781-10.664,10.672-10.664S149.716,143.435,149.716,149.326z"/>
	<path style="fill:#DA4453;" d="M192.387,149.326c0,5.89-4.766,10.671-10.672,10.671c-5.875,0-10.656-4.781-10.656-10.671
		c0-5.891,4.781-10.664,10.656-10.664C187.621,138.662,192.387,143.435,192.387,149.326z"/>
	<path style="fill:#DA4453;" d="M235.057,149.326c0,5.89-4.781,10.671-10.672,10.671s-10.672-4.781-10.672-10.671
		c0-5.891,4.781-10.664,10.672-10.664S235.057,143.435,235.057,149.326z"/>
</g>
<path style="fill:#A0D468;" d="M127.998,436.35v43.639c0,17.641,14.358,32,31.999,32c17.655,0,31.999-14.359,31.999-32V436.35
	H127.998z"/>
<path style="opacity:0.1;fill:#FFFFFF;enable-background:new    ;" d="M236.401,45.226C216.276,16.055,189.152,0,159.997,0
	c-1.781,0-3.562,0.062-5.328,0.18c27.124,1.836,52.186,17.664,71.061,45.046c19.266,27.952,29.89,64.921,29.89,104.1
	s-10.624,76.154-29.89,104.106c-18.875,27.374-43.937,43.202-71.061,45.046c1.766,0.109,3.547,0.172,5.328,0.172
	c29.155,0,56.279-16.062,76.404-45.218c19.265-27.952,29.874-64.928,29.874-104.106S255.666,73.179,236.401,45.226z"/>
</svg>